<svg width="39" height="39" viewBox="0 0 39 39" fill="none" xmlns="http://www.w3.org/2000/svg">
<path d="M19.2 0C8.596 0 0 8.596 0 19.2C0 29.804 8.596 38.4 19.2 38.4C29.804 38.4 38.4 29.804 38.4 19.2C38.4 8.596 29.804 0 19.2 0ZM27.01 15.728C27.018 15.892 27.02 16.056 27.02 16.216C27.02 21.216 23.218 26.978 16.262 26.978C14.2066 26.9814 12.1939 26.3911 10.466 25.278C10.76 25.314 11.062 25.328 11.368 25.328C13.14 25.328 14.77 24.726 16.064 23.71C15.2754 23.6945 14.5113 23.4334 13.8782 22.963C13.2451 22.4927 12.7745 21.8365 12.532 21.086C13.0983 21.1937 13.6817 21.1711 14.238 21.02C13.3821 20.8469 12.6124 20.3832 12.0594 19.7073C11.5064 19.0315 11.2042 18.1852 11.204 17.312V17.266C11.714 17.548 12.298 17.72 12.918 17.74C12.1156 17.2059 11.5476 16.3853 11.3301 15.4463C11.1126 14.5072 11.2621 13.5205 11.748 12.688C12.6979 13.856 13.8825 14.8115 15.2251 15.4926C16.5678 16.1737 18.0384 16.5653 19.542 16.642C19.3508 15.8306 19.4331 14.9788 19.776 14.219C20.1189 13.4592 20.7032 12.834 21.4381 12.4405C22.173 12.0471 23.0173 11.9074 23.8398 12.0433C24.6622 12.1792 25.4167 12.5831 25.986 13.192C26.8323 13.0246 27.644 12.7141 28.386 12.274C28.1039 13.1503 27.5133 13.8944 26.724 14.368C27.4737 14.2777 28.2057 14.0762 28.896 13.77C28.389 14.5298 27.7503 15.1929 27.01 15.728Z" fill="#3D445C"/>
</svg>
