<svg width="44" height="44" viewBox="0 0 44 44" fill="none" xmlns="http://www.w3.org/2000/svg">
<path d="M40.3337 31.1667C40.3337 32.1391 39.9474 33.0718 39.2597 33.7594C38.5721 34.447 37.6395 34.8333 36.667 34.8333H12.5183C11.5459 34.8335 10.6135 35.22 9.92599 35.9077L5.88899 39.9447C5.70695 40.1267 5.47503 40.2506 5.22256 40.3008C4.97008 40.351 4.70838 40.3253 4.47056 40.2268C4.23273 40.1283 4.02945 39.9614 3.88642 39.7474C3.74338 39.5334 3.66703 39.2818 3.66699 39.0243V9.16667C3.66699 8.19421 4.0533 7.26158 4.74093 6.57394C5.42857 5.88631 6.3612 5.5 7.33366 5.5H36.667C37.6395 5.5 38.5721 5.88631 39.2597 6.57394C39.9474 7.26158 40.3337 8.19421 40.3337 9.16667V31.1667Z" stroke="black" stroke-width="2" stroke-linecap="round" stroke-linejoin="round"/>
<path d="M18.333 27.5H25.6663" stroke="black" stroke-width="2" stroke-linecap="round" stroke-linejoin="round"/>
<path d="M18.333 16.5H25.6663" stroke="black" stroke-width="2" stroke-linecap="round" stroke-linejoin="round"/>
<path d="M22 12.8333V20.1666" stroke="black" stroke-width="2" stroke-linecap="round" stroke-linejoin="round"/>
</svg>
