<svg width="44" height="44" viewBox="0 0 44 44" fill="none" xmlns="http://www.w3.org/2000/svg">
<path d="M23.833 12.8332L15.9496 4.94988C15.1217 4.1259 14.0011 3.66333 12.833 3.66333C11.6649 3.66333 10.5443 4.1259 9.7163 4.94988L4.94964 9.71655C4.12566 10.5445 3.66309 11.6651 3.66309 12.8332C3.66309 14.0013 4.12566 15.1219 4.94964 15.9499L12.833 23.8332" stroke="black" stroke-width="2" stroke-linecap="round" stroke-linejoin="round"/>
<path d="M14.667 10.9999L18.3337 7.33325" stroke="black" stroke-width="2" stroke-linecap="round" stroke-linejoin="round"/>
<path d="M33 29.3334L36.6667 25.6667" stroke="black" stroke-width="2" stroke-linecap="round" stroke-linejoin="round"/>
<path d="M31.167 20.1667L39.0503 28.0501C40.7737 29.7734 40.7737 32.5601 39.0503 34.2834L34.2837 39.0501C32.5603 40.7734 29.7737 40.7734 28.0503 39.0501L20.167 31.1667" stroke="black" stroke-width="2" stroke-linecap="round" stroke-linejoin="round"/>
<path d="M38.8192 12.4887C39.7885 11.5197 40.3332 10.2052 40.3333 8.83461C40.3335 7.46399 39.7892 6.14943 38.8201 5.18013C37.8511 4.21083 36.5366 3.66619 35.166 3.66602C33.7954 3.66584 32.4808 4.21016 31.5115 5.17921L7.04387 29.6524C6.61821 30.0768 6.30341 30.5994 6.12721 31.174L3.70537 39.1527C3.65799 39.3113 3.65441 39.4797 3.69502 39.6401C3.73562 39.8005 3.81889 39.947 3.936 40.0639C4.0531 40.1808 4.19968 40.2638 4.36016 40.3042C4.52065 40.3445 4.68906 40.3407 4.84754 40.293L12.828 37.873C13.4022 37.6984 13.9247 37.3855 14.3497 36.9619L38.8192 12.4887Z" stroke="black" stroke-width="2" stroke-linecap="round" stroke-linejoin="round"/>
<path d="M27.5 9.16675L34.8333 16.5001" stroke="black" stroke-width="2" stroke-linecap="round" stroke-linejoin="round"/>
</svg>
