<svg width="44" height="44" viewBox="0 0 44 44" fill="none" xmlns="http://www.w3.org/2000/svg">
<path d="M20.167 36.6667H3.66699" stroke="black" stroke-width="2" stroke-linecap="round" stroke-linejoin="round"/>
<path d="M20.167 8.36362V37.9848C20.1671 38.2633 20.2306 38.5381 20.3527 38.7883C20.4749 39.0386 20.6524 39.2578 20.8719 39.4292C21.0913 39.6006 21.347 39.7197 21.6194 39.7776C21.8918 39.8355 22.1738 39.8305 22.444 39.7631L34.8337 36.6666V10.197C34.8335 9.3793 34.5601 8.58516 34.0569 7.94073C33.5536 7.2963 32.8494 6.83857 32.0562 6.64029L24.7228 4.80695C24.1824 4.67188 23.6184 4.6617 23.0735 4.77717C22.5286 4.89265 22.0172 5.13075 21.578 5.4734C21.1389 5.81605 20.7836 6.25424 20.5391 6.75471C20.2946 7.25519 20.1674 7.80662 20.167 8.36362Z" stroke="black" stroke-width="2" stroke-linecap="round" stroke-linejoin="round"/>
<path d="M20.1667 7.33325H14.6667C13.6942 7.33325 12.7616 7.71956 12.0739 8.40719C11.3863 9.09483 11 10.0275 11 10.9999V36.6666" stroke="black" stroke-width="2" stroke-linecap="round" stroke-linejoin="round"/>
<path d="M25.667 22H25.6853" stroke="black" stroke-width="2" stroke-linecap="round" stroke-linejoin="round"/>
<path d="M40.333 36.6667H34.833" stroke="black" stroke-width="2" stroke-linecap="round" stroke-linejoin="round"/>
</svg>
