<svg width="44" height="44" viewBox="0 0 44 44" fill="none" xmlns="http://www.w3.org/2000/svg">
<path d="M5.5 12.8333V9.16667C5.5 8.19421 5.88631 7.26158 6.57394 6.57394C7.26158 5.88631 8.19421 5.5 9.16667 5.5H12.8333" stroke="black" stroke-width="2" stroke-linecap="round" stroke-linejoin="round"/>
<path d="M31.167 5.5H34.8337C35.8061 5.5 36.7387 5.88631 37.4264 6.57394C38.114 7.26158 38.5003 8.19421 38.5003 9.16667V12.8333" stroke="black" stroke-width="2" stroke-linecap="round" stroke-linejoin="round"/>
<path d="M38.5003 31.1667V34.8334C38.5003 35.8059 38.114 36.7385 37.4264 37.4261C36.7387 38.1138 35.8061 38.5001 34.8337 38.5001H31.167" stroke="black" stroke-width="2" stroke-linecap="round" stroke-linejoin="round"/>
<path d="M12.8333 38.5001H9.16667C8.19421 38.5001 7.26158 38.1138 6.57394 37.4261C5.88631 36.7385 5.5 35.8059 5.5 34.8334V31.1667" stroke="black" stroke-width="2" stroke-linecap="round" stroke-linejoin="round"/>
<path d="M22.0003 23.8334C23.0128 23.8334 23.8337 23.0126 23.8337 22.0001C23.8337 20.9876 23.0128 20.1667 22.0003 20.1667C20.9878 20.1667 20.167 20.9876 20.167 22.0001C20.167 23.0126 20.9878 23.8334 22.0003 23.8334Z" stroke="black" stroke-width="2" stroke-linecap="round" stroke-linejoin="round"/>
<path d="M34.731 22.6049C34.868 22.2132 34.868 21.7866 34.731 21.3949C33.6988 18.8657 31.9367 16.7012 29.6693 15.1776C27.4019 13.654 24.7321 12.8403 22.0004 12.8403C19.2686 12.8403 16.5988 13.654 14.3314 15.1776C12.064 16.7012 10.3019 18.8657 9.26969 21.3949C9.13276 21.7866 9.13276 22.2132 9.26969 22.6049C10.3019 25.1341 12.064 27.2986 14.3314 28.8222C16.5988 30.3458 19.2686 31.1594 22.0004 31.1594C24.7321 31.1594 27.4019 30.3458 29.6693 28.8222C31.9367 27.2986 33.6988 25.1341 34.731 22.6049Z" stroke="black" stroke-width="2" stroke-linecap="round" stroke-linejoin="round"/>
</svg>
